#
# Object file
# Created by SpaceClaim
#

mtllib CAR.mtl

# CAR\Solid
v 5.5 1.00000000000001 9.26
v 15.5 1.00000000000003 9.26
v 15.5 3.13298107075533E-14 9.26
v 5.50000000000001 1.1117029605906E-14 9.26
v 15.5 1.57000000000003 -6.1
v 15.5 1.00000000000003 -6.1
v 15.5 1.00000000000003 -6.27
v 15.5 3.13298107075533E-14 -6.27
v 15.5 3.13298107075533E-14 9.26
v 15.5 1.00000000000003 9.26
v 15.5 1.00000000000003 -5.29
v 15.5 1.57000000000003 -5.29
v 5.5 1.00000000000001 -5.29
v 5.5 1.00000000000001 9.26
v 5.50000000000001 1.1117029605906E-14 9.26
v 5.5 1.1117029605906E-14 -6.27
v 5.5 1.00000000000001 -6.27
v 5.5 1.00000000000001 -6.1
v 5.5 1.57000000000001 -6.1
v 5.5 1.57000000000001 -5.29
v 15.5 1.57000000000003 -5.29
v 10.5 1.57000000000002 -5.29
v 5.5 1.57000000000001 -5.29
v 5.5 1.57000000000001 -6.1
v 15.5 1.57000000000003 -6.1
v 15.5 3.13298107075533E-14 -6.27
v 15.5 1.00000000000003 -6.27
v 20.7837588167193 1.00000000000004 -6.27
v 20.7837588167193 17.5641215867002 -6.27
v 0.255500245606423 17.5641215867001 -6.27
v 0.255500245606456 1 -6.27
v 5.5 1.00000000000001 -6.27
v 5.5 1.1117029605906E-14 -6.27
v 6.93889390390723E-15 7.01271717836158E-30 -6.27
v -3.46944695195361E-14 18 -6.27
v 21 18 -6.27
v 21 4.24468403134593E-14 -6.27
v 5.5 1.1117029605906E-14 -6.27
v 5.50000000000001 1.1117029605906E-14 9.26
v 15.5 3.13298107075533E-14 9.26
v 15.5 3.13298107075533E-14 -6.27
v 21 4.24468403134593E-14 -6.27
v 21 4.24468403134593E-14 10.79
v 6.93889390390723E-15 7.01271717836158E-30 10.79
v 6.93889390390723E-15 7.01271717836158E-30 -6.27
v 15.5 1.00000000000003 9.26
v 5.5 1.00000000000001 9.26
v 5.5 1.00000000000001 -5.29
v 0.255500245606456 1 -5.29
v 0.255500245606456 1 10.79
v 20.7837588167193 1.00000000000004 10.79
v 20.7837588167193 1.00000000000004 -5.29
v 15.5 1.00000000000003 -5.29
v 15.5 1.00000000000003 -6.27
v 15.5 1.00000000000003 -6.1
v 20.7837588167193 1.00000000000004 -6.1
v 20.7837588167193 1.00000000000004 -6.27
v 15.5 1.57000000000003 -5.29
v 15.5 1.00000000000003 -5.29
v 20.7837588167193 1.00000000000004 -5.29
v 20.7837588167193 17.5641215867002 -5.29
v 0.255500245606423 17.5641215867001 -5.29
v 0.255500245606456 1 -5.29
v 5.5 1.00000000000001 -5.29
v 5.5 1.57000000000001 -5.29
v 10.5 1.57000000000002 -5.29
v 15.5 1.00000000000003 -6.1
v 15.5 1.57000000000003 -6.1
v 5.5 1.57000000000001 -6.1
v 5.5 1.00000000000001 -6.1
v 0.255500245606456 1 -6.1
v 0.255500245606423 17.5641215867001 -6.1
v 20.7837588167193 17.5641215867002 -6.1
v 20.7837588167193 1.00000000000004 -6.1
v 0.255500245606423 17.5641215867001 -6.1
v 0.255500245606456 1 -6.1
v 0.255500245606456 1 -6.27
v 0.255500245606423 17.5641215867001 -6.27
v 0.255500245606456 1 -5.29
v 0.255500245606423 17.5641215867001 -5.29
v 0.255500245606423 17.5641215867001 10.79
v 0.255500245606456 1 10.79
v 5.5 1.00000000000001 -6.1
v 5.5 1.00000000000001 -6.27
v 0.255500245606456 1 -6.27
v 0.255500245606456 1 -6.1
v 20.7837588167193 17.5641215867002 -5.29
v 20.7837588167193 1.00000000000004 -5.29
v 20.7837588167193 1.00000000000004 10.79
v 20.7837588167193 17.5641215867002 10.79
v 20.7837588167193 1.00000000000004 -6.1
v 20.7837588167193 17.5641215867002 -6.1
v 20.7837588167193 17.5641215867002 -6.27
v 20.7837588167193 1.00000000000004 -6.27
v 20.7837588167193 17.5641215867002 -6.1
v 0.255500245606423 17.5641215867001 -6.1
v 0.255500245606423 17.5641215867001 -6.27
v 20.7837588167193 17.5641215867002 -6.27
v 0.255500245606423 17.5641215867001 -5.29
v 20.7837588167193 17.5641215867002 -5.29
v 20.7837588167193 17.5641215867002 10.79
v 0.255500245606423 17.5641215867001 10.79
v 21 18 -6.27
v -3.46944695195361E-14 18 -6.27
v -3.46944695195361E-14 18 10.79
v 21 18 10.79
v 21 4.24468403134593E-14 -6.27
v 21 18 -6.27
v 21 18 10.79
v 21 4.24468403134593E-14 10.79
v -3.46944695195361E-14 18 -6.27
v 6.93889390390723E-15 7.01271717836158E-30 -6.27
v 6.93889390390723E-15 7.01271717836158E-30 10.79
v -3.46944695195361E-14 18 10.79
v 20.7837588167193 17.5641215867002 10.79
v 20.7837588167193 1.00000000000004 10.79
v 0.255500245606456 1 10.79
v 0.255500245606423 17.5641215867001 10.79
v -3.46944695195361E-14 18 10.79
v 6.93889390390723E-15 7.01271717836158E-30 10.79
v 21 4.24468403134593E-14 10.79
v 21 18 10.79
vn 0 0 -1
vn 0 0 -1
vn 0 0 -1
vn 0 0 -1
vn -1 -2.02127811016473E-15 8.02130593854617E-46
vn -1 -2.02127811016473E-15 8.02130593854617E-46
vn -1 -2.02127811016473E-15 8.02130593854617E-46
vn -1 -2.02127811016473E-15 8.02130593854617E-46
vn -1 -2.02127811016473E-15 8.02130593854617E-46
vn -1 -2.02127811016473E-15 8.02130593854617E-46
vn -1 -2.02127811016473E-15 8.02130593854617E-46
vn -1 -2.02127811016473E-15 8.02130593854617E-46
vn 1 2.02127811016473E-15 0
vn 1 2.02127811016473E-15 0
vn 1 2.02127811016473E-15 0
vn 1 2.02127811016473E-15 0
vn 1 2.02127811016473E-15 0
vn 1 2.02127811016473E-15 0
vn 1 2.02127811016473E-15 0
vn 1 2.02127811016473E-15 0
vn 2.02127811016473E-15 -1 0
vn 2.02127811016473E-15 -1 0
vn 2.02127811016473E-15 -1 0
vn 2.02127811016473E-15 -1 0
vn 2.02127811016473E-15 -1 0
vn 0 0 -1
vn 0 0 -1
vn 0 0 -1
vn 0 0 -1
vn 0 0 -1
vn 0 0 -1
vn 0 0 -1
vn 0 0 -1
vn 0 0 -1
vn 0 0 -1
vn 0 0 -1
vn 0 0 -1
vn 2.02127811016473E-15 -1 0
vn 2.02127811016473E-15 -1 0
vn 2.02127811016473E-15 -1 0
vn 2.02127811016473E-15 -1 0
vn 2.02127811016473E-15 -1 0
vn 2.02127811016473E-15 -1 0
vn 2.02127811016473E-15 -1 0
vn 2.02127811016473E-15 -1 0
vn -2.00697406512723E-15 1 0
vn -2.00697406512723E-15 1 0
vn -2.00697406512723E-15 1 0
vn -2.00697406512723E-15 1 0
vn -2.00697406512723E-15 1 0
vn -2.00697406512723E-15 1 0
vn -2.00697406512723E-15 1 0
vn -2.00697406512723E-15 1 0
vn -2.00697406512723E-15 1 0
vn -2.00697406512723E-15 1 0
vn -2.00697406512723E-15 1 0
vn -2.00697406512723E-15 1 0
vn 0 0 1
vn 0 0 1
vn 0 0 1
vn 0 0 1
vn 0 0 1
vn 0 0 1
vn 0 0 1
vn 0 0 1
vn 0 0 1
vn 0 0 -1
vn 0 0 -1
vn 0 0 -1
vn 0 0 -1
vn 0 0 -1
vn 0 0 -1
vn 0 0 -1
vn 0 0 -1
vn 1 2.0029185552885E-15 0
vn 1 2.0029185552885E-15 0
vn 1 2.0029185552885E-15 0
vn 1 2.0029185552885E-15 0
vn 1 2.0029185552885E-15 0
vn 1 2.0029185552885E-15 0
vn 1 2.0029185552885E-15 0
vn 1 2.0029185552885E-15 0
vn -2.00697406512723E-15 1 0
vn -2.00697406512723E-15 1 0
vn -2.00697406512723E-15 1 0
vn -2.00697406512723E-15 1 0
vn -1 -2.09455535193568E-15 0
vn -1 -2.09455535193568E-15 0
vn -1 -2.09455535193568E-15 0
vn -1 -2.09455535193568E-15 0
vn -1 -2.09455535193568E-15 0
vn -1 -2.09455535193568E-15 0
vn -1 -2.09455535193568E-15 0
vn -1 -2.09455535193568E-15 0
vn 1.85909176559154E-15 -1 0
vn 1.85909176559154E-15 -1 0
vn 1.85909176559154E-15 -1 0
vn 1.85909176559154E-15 -1 0
vn 1.85909176559154E-15 -1 0
vn 1.85909176559154E-15 -1 0
vn 1.85909176559154E-15 -1 0
vn 1.85909176559154E-15 -1 0
vn -1.98254111540207E-15 1 0
vn -1.98254111540207E-15 1 0
vn -1.98254111540207E-15 1 0
vn -1.98254111540207E-15 1 0
vn 1 1.92747052886312E-15 0
vn 1 1.92747052886312E-15 0
vn 1 1.92747052886312E-15 0
vn 1 1.92747052886312E-15 0
vn -1 -2.31296463463575E-15 0
vn -1 -2.31296463463575E-15 0
vn -1 -2.31296463463575E-15 0
vn -1 -2.31296463463575E-15 0
vn 0 0 1
vn 0 0 1
vn 0 0 1
vn 0 0 1
vn 0 0 1
vn 0 0 1
vn 0 0 1
vn 0 0 1
vt 0.005 0.000999999999999989
vt -0.005 0.00100000000000001
vt -0.005 1.01063905508236E-17
vt 0.005 -1.01063905508236E-17
vt -0.007595 0.00157
vt -0.007595 0.000999999999999999
vt -0.007765 0.000999999999999999
vt -0.007765 -6.16297582203915E-33
vt 0.007765 1.2589619769264E-62
vt 0.007765 0.000999999999999999
vt -0.006785 0.000999999999999999
vt -0.006785 0.00157
vt 0.006785 0.000999999999999999
vt -0.007765 0.000999999999999999
vt -0.007765 -1.75317929459039E-33
vt 0.007765 0
vt 0.007765 0.000999999999999999
vt 0.007595 0.000999999999999999
vt 0.007595 0.00157
vt 0.006785 0.00157
vt -0.005 0.00729
vt 0 0.00729
vt 0.005 0.00729
vt 0.005 0.0081
vt -0.005 0.0081
vt 0.0155 3.13298107075533E-17
vt 0.0155 0.00100000000000003
vt 0.0207837588167193 0.00100000000000004
vt 0.0207837588167193 0.0175641215867002
vt 0.000255500245606423 0.0175641215867001
vt 0.000255500245606456 0.001
vt 0.0055 0.00100000000000001
vt 0.0055 1.1117029605906E-17
vt 6.93889390390723E-18 7.01271717836158E-33
vt -3.46944695195361E-17 0.018
vt 0.021 0.018
vt 0.021 4.24468403134592E-17
vt 0.005 0.00827
vt 0.005 -0.00726
vt -0.005 -0.00726
vt -0.005 0.00827
vt -0.0105 0.00827
vt -0.0105 -0.00879
vt 0.0105 -0.00879
vt 0.0105 0.00827
vt 0.00498037046883713 -0.00726
vt -0.00501962953116287 -0.00726
vt -0.00501962953116287 0.00729
vt -0.0102641292855564 0.00729
vt -0.0102641292855564 -0.00879
vt 0.0102641292855564 -0.00879
vt 0.0102641292855564 0.00729
vt 0.00498037046883713 0.00729
vt 0.00498037046883713 0.00827
vt 0.00498037046883713 0.0081
vt 0.0102641292855564 0.0081
vt 0.0102641292855564 0.00827
vt 0.0155 0.00157000000000003
vt 0.0155 0.00100000000000003
vt 0.0207837588167193 0.00100000000000004
vt 0.0207837588167193 0.0175641215867002
vt 0.000255500245606423 0.0175641215867001
vt 0.000255500245606456 0.001
vt 0.0055 0.00100000000000001
vt 0.0055 0.00157000000000001
vt 0.0105 0.00157000000000002
vt 0.0155 0.00100000000000003
vt 0.0155 0.00157000000000003
vt 0.0055 0.00157000000000001
vt 0.0055 0.00100000000000001
vt 0.000255500245606456 0.001
vt 0.000255500245606423 0.0175641215867001
vt 0.0207837588167193 0.0175641215867002
vt 0.0207837588167193 0.00100000000000004
vt -0.00828206079335007 0.0081
vt 0.00828206079335007 0.0081
vt 0.00828206079335007 0.00827
vt -0.00828206079335007 0.00827
vt 0.00828206079335007 0.00729
vt -0.00828206079335007 0.00729
vt -0.00828206079335007 -0.00879
vt 0.00828206079335007 -0.00879
vt -0.00501962953116287 0.0081
vt -0.00501962953116287 0.00827
vt -0.0102641292855564 0.00827
vt -0.0102641292855564 0.0081
vt 0.00828206079335007 0.00729
vt -0.00828206079335007 0.00729
vt -0.00828206079335007 -0.00879
vt 0.00828206079335007 -0.00879
vt -0.00828206079335007 0.0081
vt 0.00828206079335007 0.0081
vt 0.00828206079335007 0.00827
vt -0.00828206079335007 0.00827
vt -0.0102641292855564 0.0081
vt 0.0102641292855564 0.0081
vt 0.0102641292855564 0.00827
vt -0.0102641292855564 0.00827
vt 0.0102641292855564 0.00729
vt -0.0102641292855564 0.00729
vt -0.0102641292855564 -0.00879
vt 0.0102641292855564 -0.00879
vt 0.0105 0.00827
vt -0.0105 0.00827
vt -0.0105 -0.00879
vt 0.0105 -0.00879
vt 0.00899999999999998 0.00827
vt -0.00899999999999998 0.00827
vt -0.00899999999999998 -0.00879
vt 0.00899999999999998 -0.00879
vt 0.00899999999999998 0.00827
vt -0.00899999999999998 0.00827
vt -0.00899999999999998 -0.00879
vt 0.00899999999999998 -0.00879
vt 0.0207837588167193 0.0175641215867002
vt 0.0207837588167193 0.00100000000000004
vt 0.000255500245606456 0.001
vt 0.000255500245606423 0.0175641215867001
vt -3.46944695195361E-17 0.018
vt 6.93889390390723E-18 7.01271717836158E-33
vt 0.021 4.24468403134592E-17
vt 0.021 0.018

o CAR\Solid
g CAR\Solid
s off

usemtl mtl_0

# face 0
f 1/1/1 2/2/2 4/4/4
f 4/4/4 2/2/2 3/3/3

# face 1
f 12/12/12 5/5/5 11/11/11
f 11/11/11 5/5/5 6/6/6
f 11/11/11 6/6/6 8/8/8
f 8/8/8 6/6/6 7/7/7
f 8/8/8 9/9/9 11/11/11
f 11/11/11 9/9/9 10/10/10

# face 2
f 14/14/14 15/15/15 13/13/13
f 13/13/13 15/15/15 16/16/16
f 13/13/13 16/16/16 18/18/18
f 18/18/18 16/16/16 17/17/17
f 19/19/19 20/20/20 18/18/18
f 18/18/18 20/20/20 13/13/13

# face 3
f 21/21/21 22/22/22 25/25/25
f 25/25/25 22/22/22 24/24/24
f 22/22/22 23/23/23 24/24/24

# face 4
f 27/27/27 28/28/28 26/26/26
f 26/26/26 28/28/28 37/37/37
f 37/37/37 28/28/28 36/36/36
f 36/36/36 28/28/28 29/29/29
f 36/36/36 29/29/29 30/30/30
f 36/36/36 30/30/30 35/35/35
f 35/35/35 30/30/30 31/31/31
f 35/35/35 31/31/31 34/34/34
f 34/34/34 31/31/31 33/33/33
f 31/31/31 32/32/32 33/33/33

# face 5
f 38/38/38 39/39/39 45/45/45
f 45/45/45 39/39/39 44/44/44
f 39/39/39 40/40/40 44/44/44
f 44/44/44 40/40/40 43/43/43
f 41/41/41 42/42/42 40/40/40
f 40/40/40 42/42/42 43/43/43

# face 6
f 48/48/48 49/49/49 47/47/47
f 47/47/47 49/49/49 50/50/50
f 47/47/47 50/50/50 46/46/46
f 46/46/46 50/50/50 51/51/51
f 46/46/46 51/51/51 52/52/52
f 52/52/52 53/53/53 46/46/46

# face 7
f 55/55/55 56/56/56 54/54/54
f 54/54/54 56/56/56 57/57/57

# face 8
f 59/59/59 60/60/60 58/58/58
f 58/58/58 60/60/60 61/61/61
f 58/58/58 61/61/61 66/66/66
f 66/66/66 61/61/61 62/62/62
f 66/66/66 62/62/62 65/65/65
f 65/65/65 62/62/62 63/63/63
f 65/65/65 63/63/63 64/64/64

# face 9
f 67/67/67 68/68/68 74/74/74
f 74/74/74 68/68/68 73/73/73
f 73/73/73 68/68/68 72/72/72
f 72/72/72 68/68/68 69/69/69
f 72/72/72 69/69/69 71/71/71
f 71/71/71 69/69/69 70/70/70

# face 10
f 75/75/75 76/76/76 78/78/78
f 78/78/78 76/76/76 77/77/77

# face 11
f 79/79/79 80/80/80 82/82/82
f 82/82/82 80/80/80 81/81/81

# face 12
f 84/84/84 85/85/85 83/83/83
f 83/83/83 85/85/85 86/86/86

# face 13
f 87/87/87 88/88/88 90/90/90
f 90/90/90 88/88/88 89/89/89

# face 14
f 91/91/91 92/92/92 94/94/94
f 94/94/94 92/92/92 93/93/93

# face 15
f 95/95/95 96/96/96 98/98/98
f 98/98/98 96/96/96 97/97/97

# face 16
f 99/99/99 100/100/100 102/102/102
f 102/102/102 100/100/100 101/101/101

# face 17
f 103/103/103 104/104/104 106/106/106
f 106/106/106 104/104/104 105/105/105

# face 18
f 107/107/107 108/108/108 110/110/110
f 110/110/110 108/108/108 109/109/109

# face 19
f 111/111/111 112/112/112 114/114/114
f 114/114/114 112/112/112 113/113/113

# face 20
f 118/118/118 115/115/115 122/122/122
f 122/122/122 115/115/115 116/116/116
f 122/122/122 116/116/116 121/121/121
f 121/121/121 116/116/116 117/117/117
f 121/121/121 117/117/117 120/120/120
f 120/120/120 117/117/117 119/119/119
f 117/117/117 118/118/118 119/119/119
f 119/119/119 118/118/118 122/122/122
